<svg aria-hidden="true" style="position:absolute;width:0;height:0;overflow:hidden" xmlns="http://www.w3.org/2000/svg">
  <defs>
    <symbol id="icon-project" viewBox="0 0 32 32">
      <path  d="M31.466 0h-24a.534.534 0 0 0-.534.534v8h1.066V1.067h22.934v29.344a.525.525 0 0 1-.49.524h-.002c-.046 0-.092-.004-.138-.005-.094-.003-.189-.005-.282-.014-.008 0-.016 0-.024-.003a3.745 3.745 0 0 1-3.308-3.29l-.002-.017c0-.008-.002-.016-.003-.022a3.693 3.693 0 0 1-.019-.379v-1.069a.534.534 0 0 0-.534-.534H7.996v-9.6H6.93v9.6H2.664a.534.534 0 0 0-.534.534v1.066a4.805 4.805 0 0 0 4.8 4.8h23.52a1.588 1.588 0 0 0 1.546-1.587v-.013.001V.537a.534.534 0 0 0-.533-.534zM6.933 30.934a3.738 3.738 0 0 1-3.734-3.733v-.534h22.4v.534c.001.176.011.352.03.526.005.046.014.091.021.137.018.13.038.258.067.384.01.045.022.088.033.133a4.8 4.8 0 0 0 .327.904l-.012-.029c.013.026.024.053.037.077.067.136.141.266.221.394l.03.054c.087.136.181.267.282.394l.017.023c.219.275.459.517.722.731l.009.007-20.449-.002z"/>
      <path  d="M17.6 14.934a.529.529 0 0 0 .377-.157l2.134-2.133a.535.535 0 0 0 0-.754l-2.134-2.134A.533.533 0 0 0 17.6 9.6H2.666a2.667 2.667 0 1 0 0 5.334H17.6zm-.138-4.184 1.517 1.517-1.517 1.517-.379-1.517.379-1.517zm-13.196-.084h12.118l-.266 1.067H5.334v1.066h10.784l.266 1.066H4.266v-3.2zm-3.2 1.6a1.6 1.6 0 0 1 1.6-1.6H3.2v3.2h-.534a1.6 1.6 0 0 1-1.6-1.6zm11.2 10.668h16.001a.534.534 0 0 0 .534-.534v-16a.534.534 0 0 0-.911-.377l-16 16a.533.533 0 0 0 .377.911zM27.733 7.687v1.379h-1.066v1.067h1.066v1.066h-1.066v1.066h1.066v1.067h-1.066v1.066h1.066v1.066h-1.066v1.067h1.066v1.066h-1.066v1.066h1.066v1.067h-1.066v1.066h1.066v1.066h-1.066v-1.066H25.6v1.066h-1.066v-1.066h-1.067v1.066h-1.066v-1.066h-1.066v1.066h-1.067v-1.066h-1.066v1.066h-1.066v-1.066h-1.067v1.066h-1.066v-1.066h-1.066v1.066h-1.379L27.736 7.684z"/>
      <path  d="M19.992 19.734h5.075a.534.534 0 0 0 .534-.534v-5.074a.533.533 0 0 0-.911-.377l-5.075 5.075a.533.533 0 0 0 .377.911zm4.542-4.32v3.253h-3.253l3.253-3.253zm0-12.214H13.868v1.066h10.666V3.2zm1.6 2.134H12.268V6.4h13.866V5.334zM12.267 16.533h-3.2V17.6h3.2v-1.067zM11.2 18.667H9.067v1.066h2.134v-1.067z"/>
    </symbol>
    <symbol id="icon-web" viewBox="0 0 32 32">
      <path  d="M12.625 22.425c-0.131-0-0.25-0.048-0.342-0.126l0.001 0.001-3.42-2.911c-0.114-0.097-0.186-0.241-0.186-0.402s0.072-0.305 0.185-0.402l0.001-0.001 3.419-2.911c0.092-0.078 0.211-0.126 0.342-0.126 0.292 0 0.528 0.236 0.528 0.528 0 0.161-0.072 0.305-0.185 0.402l-0.001 0.001-2.946 2.509 2.946 2.509c0.114 0.097 0.186 0.241 0.186 0.402 0 0.292-0.236 0.528-0.528 0.528-0 0-0.001 0-0.001 0h0zM19.374 22.425c-0 0-0 0-0 0-0.292 0-0.528-0.236-0.528-0.528 0-0.161 0.072-0.305 0.185-0.402l0.001-0.001 2.946-2.509-2.946-2.509c-0.114-0.097-0.186-0.241-0.186-0.402 0-0.292 0.236-0.528 0.528-0.528 0.131 0 0.251 0.048 0.343 0.127l-0.001-0.001 3.419 2.911c0.114 0.097 0.186 0.241 0.186 0.402s-0.072 0.305-0.185 0.402l-0.001 0.001-3.419 2.912c-0.091 0.078-0.21 0.125-0.34 0.125-0 0-0.001 0-0.001 0h0zM14.789 24.608c-0 0-0.001 0-0.001 0-0.292 0-0.528-0.236-0.528-0.528 0-0.039 0.004-0.077 0.012-0.113l-0.001 0.003 2.13-10.115c0.052-0.241 0.264-0.419 0.517-0.419 0.292 0 0.529 0.237 0.529 0.529 0 0.039-0.004 0.076-0.012 0.113l0.001-0.004-2.131 10.115c-0.052 0.241-0.263 0.42-0.516 0.42h-0z"></path>
      <path  d="M28.452 30.119h-24.906c-1.958-0.003-3.544-1.589-3.547-3.546v-21.138c0.002-1.958 1.589-3.545 3.546-3.548h24.907c1.958 0.003 3.544 1.59 3.547 3.547v21.138c-0.003 1.958-1.59 3.544-3.547 3.547h-0zM3.547 2.944c-1.374 0.002-2.488 1.116-2.49 2.49v21.138c0.002 1.374 1.115 2.488 2.489 2.491h24.907c1.374-0.002 2.488-1.116 2.49-2.491v-21.138c-0.002-1.375-1.116-2.489-2.491-2.491h-24.906z"></path>
      <path  d="M31.472 10.347h-30.944c-0.292 0-0.529-0.237-0.529-0.529s0.237-0.529 0.529-0.529v0h30.944c0.292 0 0.528 0.236 0.528 0.528s-0.236 0.528-0.528 0.528v0zM9.026 7.819c-0.923-0.002-1.67-0.75-1.671-1.672v-0c0.002-0.922 0.749-1.67 1.671-1.671h0c0.922 0.002 1.67 0.749 1.671 1.671v0c-0.001 0.923-0.749 1.671-1.671 1.673h-0zM9.026 5.531c-0.34 0-0.616 0.276-0.616 0.617s0.276 0.617 0.617 0.617c0 0 0 0 0.001 0h-0c0.34-0 0.616-0.276 0.616-0.617s-0.276-0.617-0.617-0.617c-0 0-0 0-0.001 0h0zM3.89 7.802c-0.922-0.002-1.67-0.749-1.671-1.671v-0c0.002-0.922 0.749-1.67 1.671-1.671h0c0.923 0.001 1.671 0.749 1.673 1.671v0c-0.002 0.923-0.75 1.67-1.672 1.671h-0zM3.89 5.515c-0.34 0.001-0.615 0.276-0.615 0.617s0.276 0.617 0.617 0.617c0 0 0.001 0 0.001 0h-0c0.34-0.001 0.615-0.276 0.615-0.617s-0.276-0.617-0.617-0.617c-0 0-0.001 0-0.001 0h0zM14.163 7.834c-0.922-0.002-1.67-0.749-1.671-1.671v-0c0.002-0.922 0.749-1.67 1.671-1.671h0c0.922 0.002 1.67 0.749 1.671 1.671v0c-0.002 0.922-0.749 1.67-1.671 1.671h-0zM14.163 5.547c-0.34 0.001-0.615 0.276-0.615 0.616s0.276 0.616 0.616 0.616c0 0 0.001 0 0.001 0h-0c0.34-0.001 0.615-0.276 0.615-0.616s-0.276-0.616-0.616-0.616c-0 0-0.001 0-0.001 0h0z"></path>
    </symbol>
  </defs>
</svg>
